<svg width="42" height="42" viewBox="0 0 42 42" fill="none" xmlns="http://www.w3.org/2000/svg">
<rect opacity="0.2" width="42" height="42" rx="21" fill="white"/>
<g clip-path="url(#clip0_373_18990)">
<path d="M27.5741 9.07179L23.5212 12.1378C22.462 11.8081 21.345 11.6738 20.2269 11.7472C18.8287 11.8391 17.474 12.2525 16.2701 12.949L16.2753 12.9583C14.717 13.8573 13.4614 15.1986 12.6658 16.8117C12.1759 17.8047 11.8742 18.8722 11.7698 19.9624C11.7657 19.9996 11.7626 20.0378 11.7595 20.075C11.7564 20.1102 11.7533 20.1443 11.7512 20.1784C11.7481 20.2187 11.745 20.26 11.743 20.3013C11.743 20.3075 11.743 20.3148 11.7419 20.322C11.7388 20.3623 11.7378 20.4026 11.7357 20.4439C11.7285 20.6196 11.7264 20.7953 11.7285 20.971C11.7295 20.9989 11.7295 21.0268 11.7316 21.0547L7.67564 24.1227C7.54957 23.6236 7.45244 23.1162 7.38527 22.6026C7.37493 22.5272 7.36563 22.4497 7.3584 22.3732C7.35633 22.3588 7.3553 22.3433 7.35323 22.3278C7.35323 22.3257 7.35323 22.3236 7.3522 22.3216C7.35013 22.3019 7.34807 22.2823 7.346 22.2627C7.34497 22.2513 7.34393 22.2399 7.3429 22.2286C7.34187 22.2162 7.3398 22.2027 7.33877 22.1903C7.33773 22.18 7.3367 22.1697 7.33567 22.1593C7.33567 22.1573 7.33463 22.1552 7.33463 22.1542C7.33463 22.1449 7.33463 22.1376 7.33257 22.1294C7.3305 22.1118 7.32947 22.0942 7.3274 22.0767C7.3274 22.0694 7.32637 22.0622 7.32533 22.055C7.32327 22.0343 7.32223 22.0136 7.32017 21.994V21.9868C7.315 21.9341 7.31087 21.8814 7.30673 21.8287C7.30673 21.8245 7.3057 21.8194 7.3057 21.8142C7.30363 21.7946 7.3026 21.7749 7.30157 21.7543C7.29433 21.6561 7.28917 21.5569 7.284 21.4577C7.2809 21.3905 7.2778 21.3233 7.27573 21.2562V21.2386C7.27366 21.1735 7.2716 21.1084 7.2716 21.0433C7.26953 20.9741 7.26953 20.9038 7.26953 20.8346C7.26953 20.7839 7.26953 20.7333 7.27056 20.6837C7.27056 20.6651 7.27056 20.6455 7.2716 20.6269C7.27366 20.4367 7.2809 20.2476 7.29123 20.0595C7.29743 19.951 7.3057 19.8436 7.31397 19.7361C7.31397 19.7268 7.31603 19.7175 7.31707 19.7082C7.40697 18.6097 7.63121 17.5206 7.98875 16.4655C8.85058 13.9276 10.4451 11.7017 12.5717 10.07C14.6984 8.43833 17.2611 7.47421 19.9355 7.29853C22.6015 7.1239 25.2583 7.74081 27.5741 9.07179Z" fill="white"/>
<path d="M34.3459 21.7214C34.1712 24.3958 33.2061 26.9585 31.5744 29.0852C29.9427 31.2118 27.7168 32.8063 25.1789 33.6681C23.8872 34.1063 22.5428 34.345 21.1942 34.3822C19.8932 34.4173 18.586 34.2654 17.315 33.9254C15.395 33.4108 13.6197 32.4829 12.1099 31.2149C11.584 30.7737 11.09 30.2911 10.6322 29.7703C9.94815 28.9901 9.35913 28.1376 8.87448 27.2303C8.68848 26.8831 8.51797 26.5276 8.36297 26.1659C8.07983 25.5056 7.84939 24.8225 7.67578 24.123L11.7317 21.0549C11.7317 21.1252 11.7348 21.1965 11.7379 21.2667C11.74 21.307 11.7421 21.3473 11.7452 21.3876C11.7472 21.4259 11.7503 21.4641 11.7524 21.5023C11.7555 21.5385 11.7576 21.5747 11.7607 21.6109C11.7669 21.6811 11.7741 21.7504 11.7824 21.8196C11.7855 21.8547 11.7896 21.8888 11.7937 21.9229C11.8454 22.3456 11.927 22.7641 12.0376 23.1764C12.0531 23.2343 12.0686 23.2921 12.0862 23.35C12.5688 25.0179 13.5195 26.5131 14.8256 27.6602C15.0178 27.8286 15.2152 27.9877 15.4198 28.1376C15.549 28.2337 15.6802 28.3256 15.8146 28.4135C16.2754 28.7183 16.7632 28.9798 17.2695 29.1937C18.0218 29.513 18.8165 29.731 19.6359 29.8395C21.4185 30.0741 23.231 29.7744 24.8451 28.9787C26.4582 28.183 27.7995 26.9275 28.6985 25.3692L28.7037 25.3723C29.396 24.1715 29.8063 22.823 29.8983 21.429C29.9716 20.2881 29.8311 19.1504 29.487 18.0716L33.1833 15.2763C34.0885 17.2914 34.4916 19.5028 34.3459 21.7214V21.7214Z" fill="#1E1E1E"/>
<path d="M34.3459 21.7214C34.1712 24.3958 33.2061 26.9585 31.5744 29.0852C29.9427 31.2118 27.7168 32.8063 25.1789 33.6681C23.8872 34.1063 22.5428 34.345 21.1942 34.3822C19.8932 34.4173 18.586 34.2654 17.315 33.9254C15.395 33.4108 13.6197 32.4829 12.1099 31.2149C11.584 30.7737 11.09 30.2911 10.6322 29.7703C9.94815 28.9901 9.35913 28.1376 8.87448 27.2303C8.68848 26.8831 8.51797 26.5276 8.36297 26.1659C8.07983 25.5056 7.84939 24.8225 7.67578 24.123L11.7317 21.0549C11.7317 21.1252 11.7348 21.1965 11.7379 21.2667C11.74 21.307 11.7421 21.3473 11.7452 21.3876C11.7472 21.4259 11.7503 21.4641 11.7524 21.5023C11.7555 21.5385 11.7576 21.5747 11.7607 21.6109C11.7669 21.6811 11.7741 21.7504 11.7824 21.8196C11.7855 21.8547 11.7896 21.8888 11.7937 21.9229C11.8454 22.3456 11.927 22.7641 12.0376 23.1764C12.0531 23.2343 12.0686 23.2921 12.0862 23.35C12.5688 25.0179 13.5195 26.5131 14.8256 27.6602C15.0178 27.8286 15.2152 27.9877 15.4198 28.1376C15.549 28.2337 15.6802 28.3256 15.8146 28.4135C16.2754 28.7183 16.7632 28.9798 17.2695 29.1937C18.0218 29.513 18.8165 29.731 19.6359 29.8395C21.4185 30.0741 23.231 29.7744 24.8451 28.9787C26.4582 28.183 27.7995 26.9275 28.6985 25.3692L28.7037 25.3723C29.396 24.1715 29.8063 22.823 29.8983 21.429C29.9716 20.2881 29.8311 19.1504 29.487 18.0716L33.1833 15.2763C34.0885 17.2914 34.4916 19.5028 34.3459 21.7214V21.7214Z" fill="white" fill-opacity="0.75"/>
</g>
<defs>
<clipPath id="clip0_373_18990">
<rect width="27.1051" height="27.1175" fill="white" transform="translate(7.26953 7.26953)"/>
</clipPath>
</defs>
</svg>
